<?xml version="1.0" standalone="no"?><!-- Generator: Gravit.io --><svg xmlns="http://www.w3.org/2000/svg" xmlns:xlink="http://www.w3.org/1999/xlink" style="isolation:isolate" viewBox="0 0 255.388 70.223" width="255.388" height="70.223"><defs><clipPath id="_clipPath_zlQzEPGGOrnSMNWrQgnx7yWlriZF0ofE"><rect width="255.388" height="70.223"/></clipPath></defs><g clip-path="url(#_clipPath_zlQzEPGGOrnSMNWrQgnx7yWlriZF0ofE)"><clipPath id="_clipPath_saXscIZG3zG42tkwpTyYDN25xsKRtCng"><rect x="0" y="0" width="255.388" height="70.223" transform="matrix(1,0,0,1,0,0)" fill="rgb(255,255,255)"/></clipPath><g clip-path="url(#_clipPath_saXscIZG3zG42tkwpTyYDN25xsKRtCng)"><g id="Group"><path d=" M 38.49 16.827 L 38.49 16.827 L 38.49 16.827 Q 38.49 20.423 36.518 23.236 L 36.518 23.236 L 36.518 23.236 Q 34.546 26.049 31.124 27.905 L 31.124 27.905 L 31.124 27.905 Q 33.328 29.413 34.633 31.588 L 34.633 31.588 L 34.633 31.588 Q 35.938 33.763 35.938 36.373 L 35.938 36.373 L 35.938 36.373 Q 35.938 39.505 34.053 42.55 L 34.053 42.55 L 34.053 42.55 Q 32.168 45.595 29.036 47.944 L 29.036 47.944 L 29.036 47.944 Q 25.904 50.293 21.902 51.743 L 21.902 51.743 L 21.902 51.743 Q 17.9 53.193 13.724 53.193 L 13.724 53.193 L 13.724 53.193 Q 9.2 53.193 5.807 51.482 L 5.807 51.482 L 5.807 51.482 Q 2.414 49.771 0.5 46.639 L 0.5 46.639 L 0.5 46.639 Q 1.08 44.899 2.037 42.318 L 2.037 42.318 L 2.037 42.318 Q 2.994 39.737 4.154 36.866 L 4.154 36.866 L 4.154 36.866 Q 5.314 33.995 6.503 31.153 L 6.503 31.153 L 6.503 31.153 Q 7.692 28.311 8.736 26.049 L 8.736 26.049 L 8.736 26.049 Q 10.94 21.119 12.68 17.871 L 12.68 17.871 L 12.68 17.871 Q 14.42 14.623 15.87 12.709 L 15.87 12.709 L 15.87 12.709 Q 12.68 13.695 10.07 14.942 L 10.07 14.942 L 10.07 14.942 Q 7.46 16.189 6.242 17.349 L 6.242 17.349 L 6.242 17.349 Q 5.72 17.001 5.169 16.305 L 5.169 16.305 L 5.169 16.305 Q 4.618 15.609 4.125 14.768 L 4.125 14.768 L 4.125 14.768 Q 3.632 13.927 3.313 13.057 L 3.313 13.057 L 3.313 13.057 Q 2.994 12.187 2.936 11.491 L 2.936 11.491 L 2.936 11.491 Q 4.444 10.447 6.851 9.49 L 6.851 9.49 L 6.851 9.49 Q 9.258 8.533 12.1 7.837 L 12.1 7.837 L 12.1 7.837 Q 14.942 7.141 17.929 6.735 L 17.929 6.735 L 17.929 6.735 Q 20.916 6.329 23.642 6.329 L 23.642 6.329 L 23.642 6.329 Q 30.602 6.329 34.546 9.113 L 34.546 9.113 L 34.546 9.113 Q 38.49 11.897 38.49 16.827 Z  M 16.392 30.689 L 16.392 30.689 L 16.392 30.689 Q 15.29 30.167 14.362 29.123 L 14.362 29.123 L 14.362 29.123 Q 13.028 32.081 11.839 34.923 L 11.839 34.923 L 11.839 34.923 Q 10.65 37.765 9.722 40.201 L 9.722 40.201 L 9.722 40.201 Q 8.794 42.637 8.214 44.435 L 8.214 44.435 L 8.214 44.435 Q 7.634 46.233 7.576 47.045 L 7.576 47.045 L 7.576 47.045 Q 8.388 47.509 9.519 47.741 L 9.519 47.741 L 9.519 47.741 Q 10.65 47.973 12.332 47.973 L 12.332 47.973 L 12.332 47.973 Q 16.276 47.973 19.872 46.871 L 19.872 46.871 L 19.872 46.871 Q 23.468 45.769 26.194 43.884 L 26.194 43.884 L 26.194 43.884 Q 28.92 41.999 30.544 39.563 L 30.544 39.563 L 30.544 39.563 Q 32.168 37.127 32.168 34.459 L 32.168 34.459 L 32.168 34.459 Q 32.168 30.631 28.862 28.949 L 28.862 28.949 L 28.862 28.949 Q 24.338 30.805 18.654 30.805 L 18.654 30.805 L 18.654 30.805 Q 17.842 30.805 17.407 30.805 L 17.407 30.805 L 17.407 30.805 Q 16.972 30.805 16.392 30.689 Z  M 27.644 10.563 L 27.644 10.563 L 27.644 10.563 Q 26.426 10.563 25.063 10.708 L 25.063 10.708 L 25.063 10.708 Q 23.7 10.853 22.192 11.143 L 22.192 11.143 L 22.192 11.143 Q 22.424 11.375 22.569 11.636 L 22.569 11.636 L 22.569 11.636 Q 22.714 11.897 22.83 12.187 L 22.83 12.187 L 22.83 12.187 Q 22.308 12.883 21.554 14.217 L 21.554 14.217 L 21.554 14.217 Q 20.8 15.551 19.872 17.32 L 19.872 17.32 L 19.872 17.32 Q 18.944 19.089 17.929 21.235 L 17.929 21.235 L 17.929 21.235 Q 16.914 23.381 15.87 25.643 L 15.87 25.643 L 15.87 25.643 Q 16.856 25.411 18.277 25.266 L 18.277 25.266 L 18.277 25.266 Q 19.698 25.121 21.09 25.121 L 21.09 25.121 L 21.09 25.121 Q 21.844 25.121 22.569 25.179 L 22.569 25.179 L 22.569 25.179 Q 23.294 25.237 23.99 25.353 L 23.99 25.353 L 23.99 25.353 Q 26.774 24.889 29.007 23.99 L 29.007 23.99 L 29.007 23.99 Q 31.24 23.091 32.864 21.902 L 32.864 21.902 L 32.864 21.902 Q 34.488 20.713 35.358 19.263 L 35.358 19.263 L 35.358 19.263 Q 36.228 17.813 36.228 16.189 L 36.228 16.189 L 36.228 16.189 Q 36.228 13.405 34.024 11.984 L 34.024 11.984 L 34.024 11.984 Q 31.82 10.563 27.644 10.563 Z  M 46.842 50.815 L 46.842 50.815 L 46.842 50.815 Q 43.536 50.467 41.564 47.915 L 41.564 47.915 L 41.564 47.915 Q 39.592 45.363 39.592 41.419 L 39.592 41.419 L 39.592 41.419 Q 39.592 39.099 40.288 36.605 L 40.288 36.605 L 40.288 36.605 Q 40.984 34.111 42.26 31.762 L 42.26 31.762 L 42.26 31.762 Q 43.536 29.413 45.276 27.325 L 45.276 27.325 L 45.276 27.325 Q 47.016 25.237 49.046 23.729 L 49.046 23.729 L 49.046 23.729 Q 52.236 21.351 55.02 21.351 L 55.02 21.351 L 55.02 21.351 Q 56.876 22.337 58.674 25.469 L 58.674 25.469 L 58.674 25.469 Q 58.964 25.469 59.196 25.44 L 59.196 25.44 L 59.196 25.44 Q 59.428 25.411 59.718 25.411 L 59.718 25.411 L 59.718 25.411 Q 62.792 25.411 62.792 30.863 L 62.792 30.863 L 62.792 30.863 Q 62.792 34.517 61.603 37.794 L 61.603 37.794 L 61.603 37.794 Q 60.414 41.071 58.297 43.739 L 58.297 43.739 L 58.297 43.739 Q 56.18 46.407 53.251 48.234 L 53.251 48.234 L 53.251 48.234 Q 50.322 50.061 46.842 50.815 Z  M 49.8 32.545 L 49.8 32.545 L 49.8 32.545 Q 48.814 33.879 47.944 35.445 L 47.944 35.445 L 47.944 35.445 Q 47.074 37.011 46.436 38.606 L 46.436 38.606 L 46.436 38.606 Q 45.798 40.201 45.45 41.68 L 45.45 41.68 L 45.45 41.68 Q 45.102 43.159 45.102 44.319 L 45.102 44.319 L 45.102 44.319 Q 45.102 45.711 45.566 46.987 L 45.566 46.987 L 45.566 46.987 Q 46.03 48.263 46.61 48.437 L 46.61 48.437 L 46.61 48.437 Q 49.22 47.857 51.395 46.262 L 51.395 46.262 L 51.395 46.262 Q 53.57 44.667 55.165 42.289 L 55.165 42.289 L 55.165 42.289 Q 56.76 39.911 57.659 36.895 L 57.659 36.895 L 57.659 36.895 Q 58.558 33.879 58.558 30.457 L 58.558 30.457 L 58.558 30.457 Q 58.558 28.949 58.384 28.079 L 58.384 28.079 L 58.384 28.079 Q 58.21 27.209 57.804 26.571 L 57.804 26.571 L 57.804 26.571 Q 55.252 27.325 53.251 29.007 L 53.251 29.007 L 53.251 29.007 Q 51.25 30.689 49.8 32.545 Z  M 72.42 50.815 L 72.42 50.815 L 72.42 50.815 Q 69.114 50.467 67.142 47.915 L 67.142 47.915 L 67.142 47.915 Q 65.17 45.363 65.17 41.419 L 65.17 41.419 L 65.17 41.419 Q 65.17 39.099 65.866 36.605 L 65.866 36.605 L 65.866 36.605 Q 66.562 34.111 67.838 31.762 L 67.838 31.762 L 67.838 31.762 Q 69.114 29.413 70.854 27.325 L 70.854 27.325 L 70.854 27.325 Q 72.594 25.237 74.624 23.729 L 74.624 23.729 L 74.624 23.729 Q 77.814 21.351 80.598 21.351 L 80.598 21.351 L 80.598 21.351 Q 82.454 22.337 84.252 25.469 L 84.252 25.469 L 84.252 25.469 Q 84.542 25.469 84.774 25.44 L 84.774 25.44 L 84.774 25.44 Q 85.006 25.411 85.296 25.411 L 85.296 25.411 L 85.296 25.411 Q 88.37 25.411 88.37 30.863 L 88.37 30.863 L 88.37 30.863 Q 88.37 34.517 87.181 37.794 L 87.181 37.794 L 87.181 37.794 Q 85.992 41.071 83.875 43.739 L 83.875 43.739 L 83.875 43.739 Q 81.758 46.407 78.829 48.234 L 78.829 48.234 L 78.829 48.234 Q 75.9 50.061 72.42 50.815 Z  M 75.378 32.545 L 75.378 32.545 L 75.378 32.545 Q 74.392 33.879 73.522 35.445 L 73.522 35.445 L 73.522 35.445 Q 72.652 37.011 72.014 38.606 L 72.014 38.606 L 72.014 38.606 Q 71.376 40.201 71.028 41.68 L 71.028 41.68 L 71.028 41.68 Q 70.68 43.159 70.68 44.319 L 70.68 44.319 L 70.68 44.319 Q 70.68 45.711 71.144 46.987 L 71.144 46.987 L 71.144 46.987 Q 71.608 48.263 72.188 48.437 L 72.188 48.437 L 72.188 48.437 Q 74.798 47.857 76.973 46.262 L 76.973 46.262 L 76.973 46.262 Q 79.148 44.667 80.743 42.289 L 80.743 42.289 L 80.743 42.289 Q 82.338 39.911 83.237 36.895 L 83.237 36.895 L 83.237 36.895 Q 84.136 33.879 84.136 30.457 L 84.136 30.457 L 84.136 30.457 Q 84.136 28.949 83.962 28.079 L 83.962 28.079 L 83.962 28.079 Q 83.788 27.209 83.382 26.571 L 83.382 26.571 L 83.382 26.571 Q 80.83 27.325 78.829 29.007 L 78.829 29.007 L 78.829 29.007 Q 76.828 30.689 75.378 32.545 Z  M 91.27 43.304 L 91.27 43.304 L 91.27 43.304 Q 91.27 41.216 92.343 37.504 L 92.343 37.504 L 92.343 37.504 Q 93.416 33.792 95.156 29.384 L 95.156 29.384 L 95.156 29.384 Q 96.896 24.976 99.1 20.278 L 99.1 20.278 L 99.1 20.278 Q 101.304 15.58 103.537 11.52 L 103.537 11.52 L 103.537 11.52 Q 105.77 7.46 107.829 4.502 L 107.829 4.502 L 107.829 4.502 Q 109.888 1.544 111.338 0.5 L 111.338 0.5 L 111.338 0.5 Q 112.15 0.558 113.107 1.196 L 113.107 1.196 L 113.107 1.196 Q 114.064 1.834 114.876 2.733 L 114.876 2.733 L 114.876 2.733 Q 115.688 3.632 116.239 4.618 L 116.239 4.618 L 116.239 4.618 Q 116.79 5.604 116.79 6.416 L 116.79 6.416 L 116.79 6.416 Q 114.18 8.504 111.483 11.781 L 111.483 11.781 L 111.483 11.781 Q 108.786 15.058 106.35 18.973 L 106.35 18.973 L 106.35 18.973 Q 103.914 22.888 101.855 27.267 L 101.855 27.267 L 101.855 27.267 Q 99.796 31.646 98.404 35.88 L 98.404 35.88 L 98.404 35.88 Q 100.26 32.683 102.29 30.068 L 102.29 30.068 L 102.29 30.068 Q 104.32 27.453 106.35 25.593 L 106.35 25.593 L 106.35 25.593 Q 108.38 23.733 110.323 22.716 L 110.323 22.716 L 110.323 22.716 Q 112.266 21.699 114.006 21.699 L 114.006 21.699 L 114.006 21.699 Q 116.558 23.552 116.558 26.62 L 116.558 26.62 L 116.558 26.62 Q 116.558 28.473 115.804 30.355 L 115.804 30.355 L 115.804 30.355 Q 115.05 32.236 113.803 33.828 L 113.803 33.828 L 113.803 33.828 Q 112.556 35.421 110.961 36.55 L 110.961 36.55 L 110.961 36.55 Q 109.366 37.679 107.626 38.026 L 107.626 38.026 L 107.626 38.026 Q 108.206 40.056 109.105 42.144 L 109.105 42.144 L 109.105 42.144 Q 110.004 44.232 111.251 46.204 L 111.251 46.204 L 111.251 46.204 Q 112.498 48.176 114.093 49.858 L 114.093 49.858 L 114.093 49.858 Q 115.688 51.54 117.718 52.7 L 117.718 52.7 L 117.718 52.7 Q 117.428 53.28 116.848 53.86 L 116.848 53.86 L 116.848 53.86 Q 116.268 54.44 115.456 54.875 L 115.456 54.875 L 115.456 54.875 Q 114.644 55.31 113.687 55.571 L 113.687 55.571 L 113.687 55.571 Q 112.73 55.832 111.802 55.832 L 111.802 55.832 L 111.802 55.832 Q 110.236 55.832 108.873 54.266 L 108.873 54.266 L 108.873 54.266 Q 107.51 52.7 106.408 49.742 L 106.408 49.742 L 106.408 49.742 Q 105.538 47.364 104.726 44.058 L 104.726 44.058 L 104.726 44.058 Q 103.914 40.752 103.276 37.156 L 103.276 37.156 L 103.276 37.156 Q 104.088 36.635 105.306 35.622 L 105.306 35.622 L 105.306 35.622 Q 106.524 34.61 107.858 33.279 L 107.858 33.279 L 107.858 33.279 Q 112.962 28.36 112.962 24.772 L 112.962 24.772 L 112.962 24.772 Q 112.962 24.309 112.324 24.309 L 112.324 24.309 L 112.324 24.309 Q 111.164 24.309 109.598 25.354 L 109.598 25.354 L 109.598 25.354 Q 108.032 26.399 106.263 28.257 L 106.263 28.257 L 106.263 28.257 Q 104.494 30.115 102.667 32.612 L 102.667 32.612 L 102.667 32.612 Q 100.84 35.109 99.158 38.012 L 99.158 38.012 L 99.158 38.012 Q 98.462 39.173 97.882 40.683 L 97.882 40.683 L 97.882 40.683 Q 97.302 42.192 96.867 43.789 L 96.867 43.789 L 96.867 43.789 Q 96.432 45.386 96.2 46.953 L 96.2 46.953 L 96.2 46.953 Q 95.968 48.521 95.968 49.857 L 95.968 49.857 L 95.968 49.857 Q 95.968 50.669 96.142 51.192 L 96.142 51.192 L 96.142 51.192 Q 94.344 51.018 93.938 50.264 L 93.938 50.264 L 93.938 50.264 Q 93.474 49.568 93.155 49.133 L 93.155 49.133 L 93.155 49.133 Q 92.836 48.698 92.488 48.408 L 92.488 48.408 L 92.488 48.408 Q 91.966 48.002 91.618 46.668 L 91.618 46.668 L 91.618 46.668 Q 91.27 45.334 91.27 43.304 Z  M 143.586 9.751 L 143.586 9.751 L 143.586 9.751 Q 141.034 13.173 138.946 17.291 L 138.946 17.291 L 138.946 17.291 Q 136.858 21.409 135.379 25.73 L 135.379 25.73 L 135.379 25.73 Q 133.9 30.051 133.117 34.256 L 133.117 34.256 L 133.117 34.256 Q 132.334 38.461 132.334 42.115 L 132.334 42.115 L 132.334 42.115 Q 132.334 46.639 133.668 48.669 L 133.668 48.669 L 133.668 48.669 Q 135.002 50.699 138.25 50.699 L 138.25 50.699 L 138.25 50.699 Q 142.02 50.699 144.862 48.06 L 144.862 48.06 L 144.862 48.06 Q 147.704 45.421 150.198 40.781 L 150.198 40.781 L 150.198 40.781 Q 151.822 37.765 152.982 34.169 L 152.982 34.169 L 152.982 34.169 Q 154.142 30.573 154.867 26.774 L 154.867 26.774 L 154.867 26.774 Q 155.592 22.975 155.94 19.118 L 155.94 19.118 L 155.94 19.118 Q 156.288 15.261 156.288 11.723 L 156.288 11.723 L 156.288 11.723 Q 156.288 9.461 156.23 8.417 L 156.23 8.417 L 156.23 8.417 Q 156.172 7.373 156.056 6.735 L 156.056 6.735 L 156.056 6.735 Q 156.23 6.735 156.926 6.851 L 156.926 6.851 L 156.926 6.851 Q 157.622 6.967 158.521 7.141 L 158.521 7.141 L 158.521 7.141 Q 159.42 7.315 160.319 7.605 L 160.319 7.605 L 160.319 7.605 Q 161.218 7.895 161.856 8.243 L 161.856 8.243 L 161.856 8.243 Q 161.566 12.651 160.783 17.349 L 160.783 17.349 L 160.783 17.349 Q 160 22.047 158.724 26.629 L 158.724 26.629 L 158.724 26.629 Q 157.448 31.211 155.766 35.445 L 155.766 35.445 L 155.766 35.445 Q 154.084 39.679 151.996 43.043 L 151.996 43.043 L 151.996 43.043 Q 148.922 48.031 145.094 50.844 L 145.094 50.844 L 145.094 50.844 Q 141.266 53.657 136.046 53.657 L 136.046 53.657 L 136.046 53.657 Q 130.71 53.657 127.752 50.556 L 127.752 50.556 L 127.752 50.556 Q 124.794 47.455 124.794 41.137 L 124.794 41.137 L 124.794 41.137 Q 124.794 37.485 125.606 32.877 L 125.606 32.877 L 125.606 32.877 Q 126.418 28.268 127.781 23.486 L 127.781 23.486 L 127.781 23.486 Q 129.144 18.704 130.942 14.154 L 130.942 14.154 L 130.942 14.154 Q 132.74 9.604 134.712 6.01 L 134.712 6.01 L 134.712 6.01 Q 135.698 6.01 137.032 6.361 L 137.032 6.361 L 137.032 6.361 Q 138.366 6.711 139.642 7.267 L 139.642 7.267 L 139.642 7.267 Q 140.918 7.822 141.991 8.494 L 141.991 8.494 L 141.991 8.494 Q 143.064 9.166 143.586 9.751 Z  M 170.904 20.655 L 170.904 20.655 L 170.904 20.655 Q 172.412 21.119 173.746 22.714 L 173.746 22.714 L 173.746 22.714 Q 175.08 24.309 175.718 26.223 L 175.718 26.223 L 175.718 26.223 Q 175.08 27.789 173.746 29.993 L 173.746 29.993 L 173.746 29.993 Q 172.412 32.197 171.078 34.488 L 171.078 34.488 L 171.078 34.488 Q 169.744 36.779 168.671 38.838 L 168.671 38.838 L 168.671 38.838 Q 167.598 40.897 167.424 42.231 L 167.424 42.231 L 167.424 42.231 Q 168.352 41.245 169.483 39.94 L 169.483 39.94 L 169.483 39.94 Q 170.614 38.635 171.687 37.33 L 171.687 37.33 L 171.687 37.33 Q 172.76 36.025 173.688 34.952 L 173.688 34.952 L 173.688 34.952 Q 174.616 33.879 175.138 33.357 L 175.138 33.357 L 175.138 33.357 Q 176.24 32.197 177.748 30.66 L 177.748 30.66 L 177.748 30.66 Q 179.256 29.123 180.909 27.76 L 180.909 27.76 L 180.909 27.76 Q 182.562 26.397 184.244 25.44 L 184.244 25.44 L 184.244 25.44 Q 185.926 24.483 187.318 24.483 L 187.318 24.483 L 187.318 24.483 Q 188.826 24.483 189.841 25.498 L 189.841 25.498 L 189.841 25.498 Q 190.856 26.513 191.436 27.615 L 191.436 27.615 L 191.436 27.615 Q 191.436 27.731 191.001 27.934 L 191.001 27.934 L 191.001 27.934 Q 190.566 28.137 189.754 29.065 L 189.754 29.065 L 189.754 29.065 Q 188.942 30.109 187.927 31.936 L 187.927 31.936 L 187.927 31.936 Q 186.912 33.763 185.955 35.88 L 185.955 35.88 L 185.955 35.88 Q 184.998 37.997 184.36 40.201 L 184.36 40.201 L 184.36 40.201 Q 183.722 42.405 183.722 44.203 L 183.722 44.203 L 183.722 44.203 Q 183.722 45.653 184.099 46.059 L 184.099 46.059 L 184.099 46.059 Q 184.476 46.465 185.172 46.465 L 185.172 46.465 L 185.172 46.465 Q 185.81 46.465 186.506 46.175 L 186.506 46.175 L 186.506 46.175 Q 187.202 45.885 187.608 45.885 L 187.608 45.885 L 187.608 45.885 Q 187.84 46.001 187.985 46.378 L 187.985 46.378 L 187.985 46.378 Q 188.13 46.755 188.13 47.045 L 188.13 47.045 L 188.13 47.045 Q 187.666 47.451 187.028 47.857 L 187.028 47.857 L 187.028 47.857 Q 186.39 48.263 185.694 48.611 L 185.694 48.611 L 185.694 48.611 Q 184.998 48.959 184.331 49.191 L 184.331 49.191 L 184.331 49.191 Q 183.664 49.423 183.142 49.423 L 183.142 49.423 L 183.142 49.423 Q 181.46 49.423 180.387 48.93 L 180.387 48.93 L 180.387 48.93 Q 179.314 48.437 178.705 47.625 L 178.705 47.625 L 178.705 47.625 Q 178.096 46.813 177.864 45.682 L 177.864 45.682 L 177.864 45.682 Q 177.632 44.551 177.632 43.275 L 177.632 43.275 L 177.632 43.275 Q 177.632 42.579 177.748 41.709 L 177.748 41.709 L 177.748 41.709 Q 177.864 40.839 178.212 39.65 L 178.212 39.65 L 178.212 39.65 Q 178.56 38.461 179.198 36.808 L 179.198 36.808 L 179.198 36.808 Q 179.836 35.155 180.822 32.835 L 180.822 32.835 L 180.822 32.835 Q 180.706 32.835 179.256 33.647 L 179.256 33.647 L 179.256 33.647 Q 177.806 34.459 176.124 36.141 L 176.124 36.141 L 176.124 36.141 Q 173.398 38.751 171.223 41.303 L 171.223 41.303 L 171.223 41.303 Q 169.048 43.855 166.786 46.987 L 166.786 46.987 L 166.786 46.987 Q 165.51 48.785 164.553 50.032 L 164.553 50.032 L 164.553 50.032 Q 163.596 51.279 162.9 51.685 L 162.9 51.685 L 162.9 51.685 Q 161.682 50.989 161.102 49.742 L 161.102 49.742 L 161.102 49.742 Q 160.522 48.495 160.232 47.161 L 160.232 47.161 L 160.232 47.161 Q 160.232 46.059 160.551 44.377 L 160.551 44.377 L 160.551 44.377 Q 160.87 42.695 161.421 40.636 L 161.421 40.636 L 161.421 40.636 Q 161.972 38.577 162.784 36.315 L 162.784 36.315 L 162.784 36.315 Q 163.596 34.053 164.582 31.791 L 164.582 31.791 L 164.582 31.791 Q 166.786 26.687 168.613 23.787 L 168.613 23.787 L 168.613 23.787 Q 170.44 20.887 170.904 20.655 Z  M 192.886 44.899 L 192.886 44.899 L 192.886 44.899 Q 192.886 44.377 192.973 43.594 L 192.973 43.594 L 192.973 43.594 Q 193.06 42.811 193.292 41.506 L 193.292 41.506 L 193.292 41.506 Q 193.524 40.201 193.901 38.345 L 193.901 38.345 L 193.901 38.345 Q 194.278 36.489 194.858 33.879 L 194.858 33.879 L 194.858 33.879 Q 194.974 33.299 195.38 32.023 L 195.38 32.023 L 195.38 32.023 Q 195.786 30.747 196.453 29.326 L 196.453 29.326 L 196.453 29.326 Q 197.12 27.905 198.077 26.571 L 198.077 26.571 L 198.077 26.571 Q 199.034 25.237 200.368 24.599 L 200.368 24.599 L 200.368 24.599 Q 201.354 24.831 202.978 25.788 L 202.978 25.788 L 202.978 25.788 Q 204.602 26.745 205.762 28.427 L 205.762 28.427 L 205.762 28.427 Q 204.428 29.935 203.529 31.443 L 203.529 31.443 L 203.529 31.443 Q 202.63 32.951 201.905 34.575 L 201.905 34.575 L 201.905 34.575 Q 201.18 36.199 200.571 37.939 L 200.571 37.939 L 200.571 37.939 Q 199.962 39.679 199.208 41.593 L 199.208 41.593 L 199.208 41.593 Q 198.57 43.217 198.048 44.928 L 198.048 44.928 L 198.048 44.928 Q 197.526 46.639 197.468 47.915 L 197.468 47.915 L 197.468 47.915 Q 197.468 48.959 197.439 49.394 L 197.439 49.394 L 197.439 49.394 Q 197.41 49.829 197.12 49.829 L 197.12 49.829 L 197.12 49.829 Q 196.888 49.829 196.192 49.539 L 196.192 49.539 L 196.192 49.539 Q 195.496 49.249 194.771 48.64 L 194.771 48.64 L 194.771 48.64 Q 194.046 48.031 193.466 47.103 L 193.466 47.103 L 193.466 47.103 Q 192.886 46.175 192.886 44.899 Z  M 203.964 19.727 L 203.964 19.727 L 203.964 19.727 Q 203.964 19.379 204.138 18.683 L 204.138 18.683 L 204.138 18.683 Q 203.848 18.393 203.645 17.813 L 203.645 17.813 L 203.645 17.813 Q 203.442 17.233 203.442 16.769 L 203.442 16.769 L 203.442 16.769 Q 203.442 16.247 203.587 15.348 L 203.587 15.348 L 203.587 15.348 Q 203.732 14.449 203.964 13.405 L 203.964 13.405 L 203.964 13.405 Q 204.196 12.361 204.544 11.23 L 204.544 11.23 L 204.544 11.23 Q 204.892 10.099 205.24 9.171 L 205.24 9.171 L 205.24 9.171 Q 205.936 9.171 206.951 9.548 L 206.951 9.548 L 206.951 9.548 Q 207.966 9.925 209.01 10.534 L 209.01 10.534 L 209.01 10.534 Q 210.054 11.143 210.924 11.868 L 210.924 11.868 L 210.924 11.868 Q 211.794 12.593 212.258 13.231 L 212.258 13.231 L 212.258 13.231 Q 211.62 13.869 210.576 15 L 210.576 15 L 210.576 15 Q 209.532 16.131 208.546 17.378 L 208.546 17.378 L 208.546 17.378 Q 207.56 18.625 206.748 19.727 L 206.748 19.727 L 206.748 19.727 Q 205.936 20.829 205.704 21.293 L 205.704 21.293 L 205.704 21.293 Q 205.008 21.177 204.486 20.684 L 204.486 20.684 L 204.486 20.684 Q 203.964 20.191 203.964 19.727 Z  M 213.244 26.571 L 209.938 26.571 L 209.938 26.571 Q 209.648 26.223 209.416 25.092 L 209.416 25.092 L 209.416 25.092 Q 209.184 23.961 209.184 23.149 L 209.184 23.149 L 209.184 23.149 Q 210.692 23.381 212.084 23.381 L 212.084 23.381 L 212.084 23.381 Q 213.476 23.381 214.636 23.381 L 214.636 23.381 L 214.636 23.381 Q 215.506 21.661 216.521 19.969 L 216.521 19.969 L 216.521 19.969 Q 217.536 18.277 218.493 16.872 L 218.493 16.872 L 218.493 16.872 Q 219.45 15.467 220.291 14.493 L 220.291 14.493 L 220.291 14.493 Q 221.132 13.518 221.596 13.231 L 221.596 13.231 L 221.596 13.231 Q 222.176 13.231 223.075 13.434 L 223.075 13.434 L 223.075 13.434 Q 223.974 13.637 224.902 13.956 L 224.902 13.956 L 224.902 13.956 Q 225.83 14.275 226.584 14.623 L 226.584 14.623 L 226.584 14.623 Q 227.338 14.971 227.628 15.319 L 227.628 15.319 L 227.628 15.319 Q 225.888 17.508 224.641 19.38 L 224.641 19.38 L 224.641 19.38 Q 223.394 21.252 221.944 23.671 L 221.944 23.671 L 221.944 23.671 Q 223.104 23.671 224.293 23.671 L 224.293 23.671 L 224.293 23.671 Q 225.482 23.671 226.7 23.497 L 226.7 23.497 L 226.7 23.497 Q 226.99 23.787 227.164 24.222 L 227.164 24.222 L 227.164 24.222 Q 227.338 24.657 227.338 25.121 L 227.338 25.121 L 227.338 25.121 Q 224.496 26.223 220.436 26.223 L 220.436 26.223 L 220.436 26.223 Q 218.986 29.014 217.855 31.776 L 217.855 31.776 L 217.855 31.776 Q 216.724 34.538 215.941 37.097 L 215.941 37.097 L 215.941 37.097 Q 215.158 39.655 214.723 41.923 L 214.723 41.923 L 214.723 41.923 Q 214.288 44.191 214.288 45.994 L 214.288 45.994 L 214.288 45.994 Q 214.288 48.552 216.202 48.843 L 216.202 48.843 L 216.202 48.843 Q 217.942 48.611 219.508 47.973 L 219.508 47.973 L 219.508 47.973 Q 221.074 47.335 222.292 46.349 L 222.292 46.349 L 222.292 46.349 Q 222.64 46.871 222.698 47.219 L 222.698 47.219 L 222.698 47.219 Q 222.35 47.737 221.509 48.429 L 221.509 48.429 L 221.509 48.429 Q 220.668 49.12 219.682 49.782 L 219.682 49.782 L 219.682 49.782 Q 218.696 50.445 217.768 50.906 L 217.768 50.906 L 217.768 50.906 Q 216.84 51.366 216.376 51.424 L 216.376 51.424 L 216.376 51.424 Q 214.926 51.424 213.476 50.843 L 213.476 50.843 L 213.476 50.843 Q 212.026 50.263 210.837 49.392 L 210.837 49.392 L 210.837 49.392 Q 209.648 48.521 208.894 47.446 L 208.894 47.446 L 208.894 47.446 Q 208.14 46.372 208.14 45.327 L 208.14 45.327 L 208.14 45.327 Q 208.14 43.933 208.517 41.814 L 208.517 41.814 L 208.517 41.814 Q 208.894 39.694 209.59 37.197 L 209.59 37.197 L 209.59 37.197 Q 210.286 34.7 211.214 31.971 L 211.214 31.971 L 211.214 31.971 Q 212.142 29.242 213.244 26.571 L 213.244 26.571 L 213.244 26.571 Z  M 248.74 39.795 L 248.74 39.795 L 248.74 39.795 Q 247.406 44.029 246.072 47.509 L 246.072 47.509 L 246.072 47.509 Q 244.738 50.989 243.23 53.918 L 243.23 53.918 L 243.23 53.918 Q 241.722 56.847 239.982 59.312 L 239.982 59.312 L 239.982 59.312 Q 238.242 61.777 236.154 63.981 L 236.154 63.981 L 236.154 63.981 Q 233.486 66.765 230.644 68.244 L 230.644 68.244 L 230.644 68.244 Q 227.802 69.723 224.96 69.723 L 224.96 69.723 L 224.96 69.723 Q 223.51 69.723 222.089 69.404 L 222.089 69.404 L 222.089 69.404 Q 220.668 69.085 219.421 68.534 L 219.421 68.534 L 219.421 68.534 Q 218.174 67.983 217.217 67.258 L 217.217 67.258 L 217.217 67.258 Q 216.26 66.533 215.854 65.721 L 215.854 65.721 L 215.854 65.721 Q 215.854 65.025 216.666 64.503 L 216.666 64.503 L 216.666 64.503 Q 217.362 65.141 217.826 65.489 L 217.826 65.489 L 217.826 65.489 Q 218.29 65.837 218.725 66.069 L 218.725 66.069 L 218.725 66.069 Q 219.16 66.301 219.653 66.359 L 219.653 66.359 L 219.653 66.359 Q 220.146 66.417 220.784 66.417 L 220.784 66.417 L 220.784 66.417 Q 224.09 66.417 227.251 64.474 L 227.251 64.474 L 227.251 64.474 Q 230.412 62.531 233.225 58.964 L 233.225 58.964 L 233.225 58.964 Q 236.038 55.397 238.358 50.322 L 238.358 50.322 L 238.358 50.322 Q 240.678 45.247 242.302 38.983 L 242.302 38.983 L 242.302 38.983 Q 241.548 40.14 240.446 41.817 L 240.446 41.817 L 240.446 41.817 Q 239.344 43.495 238.01 45.144 L 238.01 45.144 L 238.01 45.144 Q 236.676 46.792 235.255 48.123 L 235.255 48.123 L 235.255 48.123 Q 233.834 49.453 232.5 49.916 L 232.5 49.916 L 232.5 49.916 Q 231.572 49.916 230.557 49.595 L 230.557 49.595 L 230.557 49.595 Q 229.542 49.274 228.643 48.69 L 228.643 48.69 L 228.643 48.69 Q 227.744 48.106 227.048 47.289 L 227.048 47.289 L 227.048 47.289 Q 226.352 46.472 226.12 45.421 L 226.12 45.421 L 226.12 45.421 Q 226.12 43.739 226.236 42.724 L 226.236 42.724 L 226.236 42.724 Q 226.352 41.709 226.642 40.491 L 226.642 40.491 L 226.642 40.491 Q 227.164 38.287 228.179 35.503 L 228.179 35.503 L 228.179 35.503 Q 229.194 32.719 230.557 30.022 L 230.557 30.022 L 230.557 30.022 Q 231.92 27.325 233.573 24.976 L 233.573 24.976 L 233.573 24.976 Q 235.226 22.627 237.024 21.293 L 237.024 21.293 L 237.024 21.293 Q 237.488 21.293 238.184 21.38 L 238.184 21.38 L 238.184 21.38 Q 238.88 21.467 239.634 21.699 L 239.634 21.699 L 239.634 21.699 Q 240.388 21.931 241.084 22.25 L 241.084 22.25 L 241.084 22.25 Q 241.78 22.569 242.302 23.091 L 242.302 23.091 L 242.302 23.091 Q 241.664 23.671 239.518 26.977 L 239.518 26.977 L 239.518 26.977 Q 237.372 30.283 234.762 36.489 L 234.762 36.489 L 234.762 36.489 Q 234.472 37.127 234.066 38.345 L 234.066 38.345 L 234.066 38.345 Q 233.66 39.563 233.283 40.897 L 233.283 40.897 L 233.283 40.897 Q 232.906 42.231 232.616 43.507 L 232.616 43.507 L 232.616 43.507 Q 232.326 44.783 232.326 45.537 L 232.326 45.537 L 232.326 45.537 Q 232.326 46.001 232.471 46.233 L 232.471 46.233 L 232.471 46.233 Q 232.616 46.465 232.732 46.581 L 232.732 46.581 L 232.732 46.581 Q 233.776 46.407 235.516 44.87 L 235.516 44.87 L 235.516 44.87 Q 237.256 43.333 239.46 40.085 L 239.46 40.085 L 239.46 40.085 Q 240.852 37.997 242.012 35.938 L 242.012 35.938 L 242.012 35.938 Q 243.172 33.879 244.303 31.791 L 244.303 31.791 L 244.303 31.791 Q 245.434 29.703 246.652 27.499 L 246.652 27.499 L 246.652 27.499 Q 247.87 25.295 249.262 22.975 L 249.262 22.975 L 249.262 22.975 Q 250.016 22.975 250.886 23.149 L 250.886 23.149 L 250.886 23.149 Q 251.756 23.323 252.568 23.584 L 252.568 23.584 L 252.568 23.584 Q 253.38 23.845 253.989 24.164 L 253.989 24.164 L 253.989 24.164 Q 254.598 24.483 254.888 24.831 L 254.888 24.831 L 254.888 24.831 Q 253.09 28.659 251.524 32.313 L 251.524 32.313 L 251.524 32.313 Q 249.958 35.967 248.74 39.795 Z " fill-rule="evenodd" fill="rgb(47,104,113)" vector-effect="non-scaling-stroke" stroke-width="1" stroke="rgb(47,104,113)" stroke-linejoin="miter" stroke-linecap="square" stroke-miterlimit="3"/></g></g></g></svg>