<?xml version="1.0" standalone="no"?><!-- Generator: Gravit.io --><svg xmlns="http://www.w3.org/2000/svg" xmlns:xlink="http://www.w3.org/1999/xlink" style="isolation:isolate" viewBox="0 0 189.8 221.328" width="189.8" height="221.328"><defs><clipPath id="_clipPath_0Z95zJ6R9tOQtXnG4MN7Yrd8jAGLqqJh"><rect width="189.8" height="221.328"/></clipPath></defs><g clip-path="url(#_clipPath_0Z95zJ6R9tOQtXnG4MN7Yrd8jAGLqqJh)"><g id="Group"><g id="Group"><path d=" M 157.004 150.752 C 153.56 145.03 146.312 140.059 135.925 136.282 L 135.925 126.728 C 143.622 125.985 149.498 119.52 149.506 111.786 C 149.506 104.26 137.535 84.236 136.147 81.986 C 135.795 81.401 135.163 81.043 134.48 81.043 C 133.798 81.043 133.166 81.401 132.814 81.986 C 131.453 84.236 119.455 104.26 119.455 111.786 C 119.455 119.229 124.899 125.395 131.981 126.589 L 131.981 134.949 C 121.344 131.616 108.846 129.728 95.598 129.422 L 95.598 116.536 C 107.93 115.98 117.789 105.76 117.789 93.29 C 117.789 81.097 97.07 46.715 96.182 45.27 C 95.83 44.685 95.198 44.328 94.515 44.328 C 93.833 44.328 93.2 44.685 92.849 45.27 C 91.96 46.715 71.242 81.125 71.242 93.29 C 71.242 105.176 80.185 114.98 91.71 116.397 L 91.71 129.394 C 78.824 129.422 66.604 130.95 55.967 133.866 L 55.967 126.728 C 63.664 125.985 69.54 119.52 69.548 111.786 C 69.548 104.26 57.577 84.236 56.189 81.986 C 55.837 81.401 55.205 81.043 54.522 81.043 C 53.84 81.043 53.208 81.401 52.856 81.986 C 51.495 84.236 39.525 104.26 39.525 111.786 C 39.525 119.229 44.969 125.395 52.051 126.589 L 52.051 135.032 C 51.745 135.143 51.412 135.227 51.106 135.338 C 39.247 139.226 30.999 144.558 27.249 150.779 C 26.734 151.697 27.042 152.857 27.944 153.399 C 28.846 153.94 30.015 153.665 30.582 152.779 C 30.777 152.446 30.999 152.113 31.249 151.779 C 34.776 146.836 42.191 142.336 52.328 139.032 C 63.715 135.282 77.491 133.31 92.099 133.31 C 106.708 133.31 120.483 135.282 131.87 139.032 C 141.979 142.336 149.394 146.836 152.949 151.779 C 153.199 152.113 153.422 152.446 153.616 152.779 C 153.977 153.39 154.616 153.723 155.282 153.723 C 155.616 153.723 155.977 153.64 156.282 153.446 C 157.254 152.862 157.56 151.668 157.004 150.752 L 157.004 150.752 Z  M 54.078 98.816 C 52.995 98.816 52.134 99.677 52.134 100.761 L 52.134 105.482 L 50.634 104.454 C 50.211 104.161 49.689 104.048 49.183 104.142 C 48.677 104.236 48.229 104.529 47.94 104.954 C 47.647 105.377 47.534 105.899 47.628 106.406 C 47.722 106.912 48.014 107.359 48.44 107.648 L 52.134 110.176 L 52.134 114.925 L 49.079 112.981 C 48.641 112.702 48.11 112.61 47.605 112.724 C 47.099 112.839 46.659 113.151 46.385 113.592 C 46.106 114.029 46.014 114.56 46.129 115.066 C 46.244 115.572 46.556 116.011 46.996 116.286 L 52.134 119.535 L 52.134 122.618 C 47.19 121.479 43.497 117.063 43.497 111.786 C 43.497 107.037 50.468 94.012 54.606 86.819 C 58.772 94.012 65.715 107.037 65.715 111.786 C 65.715 117.424 61.466 122.118 56.022 122.812 L 56.022 115.73 L 61.41 111.286 C 62.243 110.592 62.354 109.37 61.66 108.537 C 60.966 107.704 59.744 107.593 58.911 108.287 L 56.022 110.675 L 56.022 100.761 C 56.022 99.705 55.133 98.816 54.078 98.816 L 54.078 98.816 Z  M 93.71 73.376 C 92.627 73.376 91.766 74.237 91.766 75.321 L 91.766 85.347 L 87.405 82.375 C 86.517 81.764 85.322 81.986 84.711 82.875 C 84.1 83.764 84.323 84.958 85.211 85.569 L 91.766 90.04 L 91.766 100.705 L 84.878 96.345 C 84.441 96.066 83.91 95.974 83.404 96.088 C 82.898 96.203 82.459 96.515 82.184 96.956 C 81.905 97.393 81.813 97.924 81.928 98.43 C 82.043 98.936 82.355 99.375 82.795 99.65 L 91.766 105.315 L 91.766 112.481 C 82.406 111.12 75.185 103.038 75.185 93.317 C 75.185 84.874 87.933 61.406 94.571 50.103 C 101.209 61.434 113.956 84.874 113.956 93.317 C 113.956 103.649 105.847 112.092 95.654 112.675 L 95.654 99.177 L 104.875 91.54 C 105.708 90.846 105.819 89.624 105.125 88.79 C 104.43 87.957 103.208 87.846 102.375 88.54 L 95.626 94.123 L 95.626 75.348 C 95.654 74.265 94.765 73.376 93.71 73.376 L 93.71 73.376 Z  M 133.981 98.816 C 132.897 98.816 132.036 99.677 132.036 100.761 L 132.036 105.482 L 130.537 104.454 C 130.114 104.161 129.591 104.048 129.085 104.142 C 128.579 104.236 128.132 104.529 127.843 104.954 C 127.549 105.377 127.437 105.899 127.531 106.406 C 127.625 106.912 127.917 107.359 128.343 107.648 L 132.036 110.176 L 132.036 114.925 L 128.981 112.981 C 128.544 112.702 128.013 112.61 127.507 112.724 C 127.001 112.839 126.562 113.151 126.287 113.592 C 126.009 114.029 125.917 114.56 126.031 115.066 C 126.146 115.572 126.458 116.011 126.898 116.286 L 132.036 119.535 L 132.036 122.618 C 127.093 121.479 123.399 117.063 123.399 111.786 C 123.399 107.037 130.37 94.012 134.508 86.819 C 138.674 94.012 145.617 107.037 145.617 111.786 C 145.617 117.424 141.368 122.118 135.925 122.812 L 135.925 115.73 L 141.313 111.286 C 142.146 110.592 142.257 109.37 141.563 108.537 C 140.868 107.704 139.646 107.593 138.813 108.287 L 135.925 110.675 L 135.925 100.761 C 135.925 99.705 135.064 98.816 133.981 98.816 L 133.981 98.816 Z " fill="rgb(255,255,255)" vector-effect="non-scaling-stroke" stroke-width="0.5" stroke="rgb(252,251,251)" stroke-linejoin="miter" stroke-linecap="butt" stroke-miterlimit="4"/></g></g><path d=" M 29.968 0 C 13.486 0 0 12.991 0 28.869 L 0 194.47 C 0 209.751 14.145 221.328 29.968 221.328 L 189.8 221.328 L 189.8 211.705 L 29.968 211.705 C 19.18 211.705 9.989 203.905 9.989 194.47 C 9.989 185.035 18.98 178.024 29.968 178.024 L 189.8 178.024 L 189.8 0 L 29.968 0 Z  M 29.968 9.623 L 179.81 9.623 L 179.81 168.401 L 29.968 168.401 C 22.699 168.432 15.656 170.837 9.989 175.224 L 9.989 28.869 C 9.989 18.192 18.885 9.623 29.968 9.623 Z " fill="rgb(251,250,250)" vector-effect="non-scaling-stroke" stroke-width="1" stroke="rgb(255,255,255)" stroke-linejoin="miter" stroke-linecap="butt" stroke-miterlimit="4"/></g></svg>