<?xml version="1.0" standalone="no"?><!-- Generator: Gravit.io --><svg xmlns="http://www.w3.org/2000/svg" xmlns:xlink="http://www.w3.org/1999/xlink" style="isolation:isolate" viewBox="0 0 754 352" width="754" height="352"><defs><clipPath id="_clipPath_Am7FyX60IQ97LWuQdIrEhL4mVNLtbFeP"><rect width="754" height="352"/></clipPath></defs><g clip-path="url(#_clipPath_Am7FyX60IQ97LWuQdIrEhL4mVNLtbFeP)"><g id="Group"><g id="Group"><radialGradient id="_rgradient_31" fx="67.78058822886204%" fy="-1567.5611996607036%" cx="67.78058822886204%" cy="-1567.5611996607036%" r="63.847121338840076%" gradientTransform="matrix(-0.0000065188787183969565 0.999999999978752 -1.0000000000212477 -8.470329472543003e-22 0 0)"><stop offset="0%" stop-opacity="1" style="stop-color:rgb(255,177,66)"/><stop offset="88.68%" stop-opacity="1" style="stop-color:rgb(255,177,65)"/><stop offset="100%" stop-opacity="1" style="stop-color:rgb(200,118,0)"/></radialGradient><path d=" M 349.87 272.466 C 312.989 276.458 270.69 307.84 287.504 314.685 C 304.318 321.529 353.114 324.383 362.334 316.399 C 367.071 312.296 375.548 302.02 376.547 292.378 C 377.547 302.019 385.999 312.296 390.736 316.399 C 399.956 324.383 448.778 321.528 465.59 314.685 C 482.401 307.841 440.104 276.459 403.224 272.466 C 384.233 274.391 377.402 281.101 376.547 288.799 C 375.691 281.101 368.861 274.391 349.871 272.466 L 349.87 272.466 Z " fill-rule="evenodd" fill="url(#_rgradient_31)" vector-effect="non-scaling-stroke" stroke-width="1.515" stroke="rgb(0,0,0)" stroke-linejoin="miter" stroke-linecap="butt" stroke-miterlimit="4"/><path d=" M 349.877 272.491 C 331.776 274.45 312.387 283.008 299.304 292.025 C 319.117 301.66 343.343 307.599 369.602 308.282 C 372.968 303.626 375.982 297.918 376.553 292.403 C 377.12 297.866 380.064 303.524 383.384 308.156 C 409.213 307.006 432.938 300.779 452.245 290.966 C 439.209 282.343 420.627 274.375 403.23 272.491 C 384.239 274.416 377.408 281.126 376.553 288.824 C 375.697 281.126 368.867 274.416 349.877 272.491 L 349.877 272.491 Z " fill-rule="evenodd" fill="rgb(0,0,0)" fill-opacity="0.3137"/></g><g id="Group"><radialGradient id="_rgradient_32" fx="17.1010704355885%" fy="-27.14394230119561%" cx="17.1010704355885%" cy="-27.14394230119561%" r="64.39484363809979%" gradientTransform="matrix(0 -1 1 -0.000002903912942810836 0 0)"><stop offset="0%" stop-opacity="1" style="stop-color:rgb(165,165,165)"/><stop offset="100%" stop-opacity="1" style="stop-color:rgb(0,0,0)"/></radialGradient><path d=" M 501.693 160.311 C 501.693 234.064 444.837 293.853 374.701 293.853 C 304.565 293.853 247.709 234.064 247.709 160.311 C 247.709 86.557 304.565 26.769 374.701 26.769 C 444.837 26.769 501.693 86.557 501.693 160.311 Z " fill="url(#_rgradient_32)" vector-effect="non-scaling-stroke" stroke-width="1.515" stroke="rgb(0,0,0)" stroke-linejoin="miter" stroke-linecap="round" stroke-miterlimit="4"/><path d=" M 437.455 227.069 C 437.455 262.823 409.893 291.807 375.893 291.807 C 341.893 291.807 314.331 262.823 314.331 227.069 C 314.331 191.316 341.893 162.332 375.893 162.332 C 409.893 162.332 437.455 191.316 437.455 227.069 Z " fill="rgb(255,255,255)" vector-effect="non-scaling-stroke" stroke-width="1.578" stroke="rgb(0,0,0)" stroke-linejoin="miter" stroke-linecap="round" stroke-miterlimit="4"/><path d=" M 496.679 123.181 C 496.937 126.653 497.086 130.15 497.086 133.692 C 497.086 207.403 440.174 267.226 370.078 267.226 C 312.232 267.226 263.41 226.485 248.103 170.818 C 253.21 239.619 307.952 293.843 374.68 293.843 C 444.776 293.843 501.688 234.02 501.688 160.308 C 501.688 147.427 499.921 134.969 496.679 123.182 L 496.679 123.181 Z " fill="rgb(0,0,0)" fill-opacity="0.3137"/></g><g id="Group"><path d=" M 508.931 261.367 C 514.061 261.391 516.993 259.086 517.245 254.525 L 521.565 176.157 C 521.602 175.498 521.109 174.61 520.445 174.509 L 432.812 161.215 L 432.478 164.723 L 415.339 162.144 C 413.677 161.894 412.215 162.468 412.08 164.846 L 407.419 246.904 C 407.035 253.671 412.26 260.919 419.16 260.951 L 508.932 261.367 L 508.931 261.367 Z " fill="rgb(98,60,60)" vector-effect="non-scaling-stroke" stroke-width="1.073" stroke="rgb(0,0,0)" stroke-linejoin="round" stroke-linecap="round" stroke-miterlimit="4"/><linearGradient id="_lgradient_33" x1="17.55999709221321%" y1="47.926772584087864%" x2="69.46226225813881%" y2="50.51560653818908%"><stop offset="0%" stop-opacity="1" style="stop-color:rgb(255,255,255)"/><stop offset="100%" stop-opacity="1" style="stop-color:rgb(203,203,203)"/></linearGradient><path d=" M 435.167 167.043 L 430.772 245.035 C 430.081 249.17 426.65 252.358 422.363 252.135 C 418.077 251.912 414.995 248.385 414.737 244.2 L 418.463 166.174 L 418.63 166.184 C 418.608 170.62 421.922 174.395 426.398 174.628 C 430.874 174.861 434.561 171.45 435 167.036 L 435.167 167.046 L 435.167 167.043 Z " fill="url(#_lgradient_33)"/><linearGradient id="_lgradient_34" x1="104.30894261682542%" y1="99.95690481090789%" x2="105.25324306273328%" y2="78.97233386515059%"><stop offset="0%" stop-opacity="1" style="stop-color:rgb(187,68,68)"/><stop offset="100%" stop-opacity="1" style="stop-color:rgb(238,13,13)"/></linearGradient><path d=" M 516.629 252.862 C 516.391 257.424 513.565 259.77 508.603 259.73 L 422.443 259.684 C 414.203 259.502 409.792 254.13 408.727 248.753 C 412.494 260.339 432.246 259.86 432.903 245.657 L 437.201 163.076 L 519.465 176.235 C 520.105 176.338 520.568 177.225 520.534 177.882 L 516.631 252.861 L 516.629 252.862 Z " fill="url(#_lgradient_34)"/><linearGradient id="_lgradient_35" x1="43.019218892227414%" y1="-96.72779402970555%" x2="46.21536125462189%" y2="127.39841157637639%"><stop offset="0%" stop-opacity="1" style="stop-color:rgb(255,255,255)"/><stop offset="100%" stop-opacity="0" style="stop-color:rgb(255,255,255)"/></linearGradient><path d=" M 515.267 252.288 C 515.033 256.788 512.985 258.431 508.105 258.392 L 428.041 257.705 C 432.464 255.431 434.215 251.489 434.55 245.04 L 438.717 164.992 L 518.067 176.695 C 518.698 176.788 519.152 177.672 519.118 178.32 L 515.268 252.289 L 515.267 252.288 Z " fill="none" vector-effect="non-scaling-stroke" stroke-width="1.073" stroke="url(#_lgradient_35)" stroke-linejoin="miter" stroke-linecap="round" stroke-miterlimit="20"/></g><g id="Group"><g id="Group"><g opacity="0.4021"><linearGradient id="_lgradient_36" x1="116.4004180352344%" y1="0%" x2="116.40041803523438%" y2="99.99999999999999%"><stop offset="0%" stop-opacity="1" style="stop-color:rgb(0,0,0)"/><stop offset="50%" stop-opacity="1" style="stop-color:rgb(0,0,0)"/><stop offset="100%" stop-opacity="1" style="stop-color:rgb(0,0,0)"/></linearGradient><path d=" M 312.133 251.509 L 343.137 188.342 L 365.492 199.318 L 334.489 262.486 L 312.133 251.509 Z " fill="url(#_lgradient_36)"/></g><g opacity="0.4021"><radialGradient id="_rgradient_33" fx="2.4614429646787173%" fy="49.40976830608066%" cx="2.4614429646787173%" cy="49.40976830608066%" r="294.8608502646406%"><stop offset="0%" stop-opacity="1" style="stop-color:rgb(0,0,0)"/><stop offset="100%" stop-opacity="1" style="stop-color:rgb(0,0,0)"/></radialGradient><path d=" M 343.14 188.338 L 365.494 199.314 C 368.842 192.598 368.479 180.568 362.309 177.538 C 356.139 174.509 347.444 179.569 343.14 188.338 Z " fill="url(#_rgradient_33)"/></g><g opacity="0.4021"><radialGradient id="_rgradient_34" fx="97.56171858714512%" fy="49.40976830608066%" cx="97.56171858714512%" cy="49.40976830608066%" r="294.8608502646407%"><stop offset="0%" stop-opacity="1" style="stop-color:rgb(0,0,0)"/><stop offset="100%" stop-opacity="1" style="stop-color:rgb(0,0,0)"/></radialGradient><path d=" M 312.134 251.51 L 334.488 262.486 C 331.224 269.243 321.486 276.314 315.316 273.284 C 309.145 270.255 307.83 260.279 312.134 251.51 L 312.134 251.51 Z " fill="url(#_rgradient_34)"/></g></g><g opacity="0.4804"><linearGradient id="_lgradient_37" x1="0%" y1="826.6697945641611%" x2="73.41998214108543%" y2="826.6697945641611%"><stop offset="0%" stop-opacity="1" style="stop-color:rgb(0,0,0)"/><stop offset="100%" stop-opacity="1" style="stop-color:rgb(255,255,255)"/></linearGradient><path d=" M 238.374 213.092 L 240.574 208.613 L 305.664 243.522 L 303.464 248.001 L 238.374 213.092 Z " fill="url(#_lgradient_37)"/></g><path d=" M 236.921 224.742 C 232.732 222.433 231.39 219.226 233.256 215.398 L 265.303 149.625 C 265.573 149.072 266.377 148.571 266.963 148.791 L 344.353 177.734 L 343.034 180.742 L 358.16 186.421 C 359.627 186.971 360.557 188.102 359.588 190.1 L 326.144 259.034 C 323.386 264.719 315.842 268.249 310.209 265.143 L 236.92 224.741 L 236.921 224.742 Z " fill="rgb(36,42,58)" vector-effect="non-scaling-stroke" stroke-width="1.001" stroke="rgb(0,0,0)" stroke-linejoin="round" stroke-linecap="round" stroke-miterlimit="4"/><linearGradient id="_lgradient_38" x1="39.000906882613506%" y1="49.41399180682094%" x2="59.82967914479236%" y2="53.36911763273557%"><stop offset="0%" stop-opacity="1" style="stop-color:rgb(203,203,203)"/><stop offset="100%" stop-opacity="1" style="stop-color:rgb(255,255,255)"/></linearGradient><path d=" M 339.794 181.42 L 307.979 246.921 C 306.666 250.602 308.013 254.755 311.605 256.518 C 315.196 258.282 319.306 256.809 321.416 253.519 L 353.79 188.292 L 353.65 188.224 C 351.654 191.845 347.244 193.416 343.493 191.574 C 339.742 189.732 338.288 185.282 339.933 181.488 L 339.793 181.419 L 339.794 181.42 Z " fill="url(#_lgradient_38)"/><linearGradient id="_lgradient_39" x1="-8.783326347425735%" y1="57.410593174487225%" x2="-0.9313218323900863%" y2="42.47599277985723%"><stop offset="0%" stop-opacity="1" style="stop-color:rgb(43,67,92)"/><stop offset="100%" stop-opacity="1" style="stop-color:rgb(31,50,69)"/></linearGradient><path d=" M 234.52 214.326 C 232.643 218.149 233.879 221.342 237.938 223.561 L 308.118 262.626 C 314.91 266.217 320.94 263.845 324.247 259.95 C 315.922 267.674 300.056 258.32 305.966 246.457 L 339.942 177.263 L 266.985 150.646 C 266.418 150.439 265.638 150.952 265.368 151.502 L 234.518 214.328 L 234.52 214.326 Z " fill="url(#_lgradient_39)"/><linearGradient id="_lgradient_40" x1="22.631546355522136%" y1="102.14323108624794%" x2="117.28515246707127%" y2="-56.12145978222198%"><stop offset="0%" stop-opacity="0" style="stop-color:rgb(169,169,169)"/><stop offset="100%" stop-opacity="1" style="stop-color:rgb(40,40,40)"/></linearGradient><path d=" M 235.881 214.477 C 234.029 218.248 234.951 220.515 238.943 222.699 L 304.449 258.474 C 301.878 254.617 302.244 250.611 304.897 245.207 L 337.833 178.134 L 267.909 151.654 C 267.353 151.443 266.583 151.956 266.316 152.499 L 235.882 214.478 L 235.881 214.477 Z " fill="none" vector-effect="non-scaling-stroke" stroke-width="1.001" stroke="url(#_lgradient_40)" stroke-linejoin="miter" stroke-linecap="round" stroke-miterlimit="20"/></g><g id="Group"><path d=" M 348.625 71.448 C 331.034 71.448 316.746 88.735 316.746 110.035 C 316.746 131.335 331.033 148.622 348.625 148.622 C 358.962 148.622 368.136 142.645 373.96 133.399 C 379.783 142.652 388.976 148.622 399.318 148.622 C 416.909 148.622 431.196 131.335 431.196 110.035 C 431.196 88.735 416.909 71.448 399.318 71.448 C 388.977 71.448 379.783 77.42 373.96 86.671 C 368.136 77.427 358.961 71.448 348.625 71.448 L 348.625 71.448 Z " fill="rgb(255,255,255)" vector-effect="non-scaling-stroke" stroke-width="1.578" stroke="rgb(0,0,0)" stroke-linejoin="miter" stroke-linecap="round" stroke-miterlimit="4"/><path d=" M 375.482 138.008 C 364.377 138.008 352.306 148.644 352.789 155.361 C 353.272 162.077 372.586 190.064 376.931 190.064 C 381.276 190.064 398.175 162.635 397.692 154.799 C 397.209 146.962 382.725 137.446 375.482 138.006 L 375.482 138.008 Z " fill-rule="evenodd" fill="rgb(0,0,0)" fill-opacity="0.3137"/><linearGradient id="_lgradient_41" x1="44.097597683432625%" y1="-1721.1716216959271%" x2="66.68928096239438%" y2="-1721.1716216959271%"><stop offset="0%" stop-opacity="1" style="stop-color:rgb(255,177,66)"/><stop offset="100%" stop-opacity="1" style="stop-color:rgb(200,118,0)"/></linearGradient><path d=" M 373.729 131.275 C 362.623 131.275 350.553 140.923 351.036 147.015 C 351.519 153.108 370.832 178.496 375.177 178.496 C 379.522 178.496 396.422 153.617 395.939 146.508 C 395.456 139.399 380.971 130.768 373.729 131.276 L 373.729 131.275 Z " fill-rule="evenodd" fill="url(#_lgradient_41)" vector-effect="non-scaling-stroke" stroke-width="1.578" stroke="rgb(0,0,0)" stroke-linejoin="miter" stroke-linecap="butt" stroke-miterlimit="4"/><path d=" M 362.538 121.77 C 362.515 126.379 358.955 130.103 354.572 130.103 C 350.189 130.103 346.629 126.379 346.605 121.77 C 346.589 118.766 348.104 115.984 350.576 114.477 C 353.047 112.97 356.096 112.97 358.568 114.477 C 361.039 115.984 362.554 118.766 362.538 121.77 L 362.538 121.77 Z " fill="rgb(0,0,0)" vector-effect="non-scaling-stroke" stroke-width="1.578" stroke="rgb(0,0,0)" stroke-linejoin="miter" stroke-linecap="round" stroke-miterlimit="4"/><path d=" M 401.606 121.77 C 401.621 124.774 400.106 127.557 397.635 129.064 C 395.164 130.57 392.114 130.57 389.643 129.064 C 387.172 127.557 385.657 124.774 385.672 121.77 C 385.657 118.766 387.172 115.984 389.643 114.477 C 392.114 112.97 395.164 112.97 397.635 114.477 C 400.106 115.984 401.621 118.766 401.606 121.77 L 401.606 121.77 Z " fill="rgb(0,0,0)" vector-effect="non-scaling-stroke" stroke-width="1.578" stroke="rgb(0,0,0)" stroke-linejoin="miter" stroke-linecap="round" stroke-miterlimit="4"/></g><g id="Group"><path d=" M 278.919 130.434 C 315.821 144.387 268.056 206.366 307.926 260.444 C 315.296 270.439 263.541 262.13 245.245 206.74 C 227.452 152.872 244.376 120.003 278.919 130.434 Z " fill-rule="evenodd" fill="rgb(255,255,255)" vector-effect="non-scaling-stroke" stroke-width="1.578" stroke="rgb(0,0,0)" stroke-linejoin="miter" stroke-linecap="butt" stroke-miterlimit="4"/><radialGradient id="_rgradient_35" fx="39.10089383890176%" fy="-50.555524717997535%" cx="39.10089383890176%" cy="-50.555524717997535%" r="52.25326190949018%" gradientTransform="matrix(0 -1 1 0 0 0)"><stop offset="0%" stop-opacity="1" style="stop-color:rgb(165,165,165)"/><stop offset="100%" stop-opacity="1" style="stop-color:rgb(0,0,0)"/></radialGradient><path d=" M 278.919 130.434 C 315.821 144.387 246.255 212.802 307.926 260.444 C 325.28 273.85 263.541 262.13 245.245 206.74 C 227.452 152.872 244.376 120.003 278.919 130.434 Z " fill-rule="evenodd" fill="url(#_rgradient_35)" vector-effect="non-scaling-stroke" stroke-width="1.578" stroke="rgb(0,0,0)" stroke-linejoin="miter" stroke-linecap="butt" stroke-miterlimit="4"/></g><g id="Group"><path d=" M 476.765 130.434 C 439.863 144.387 487.628 206.366 447.758 260.444 C 440.389 270.439 492.143 262.13 510.44 206.74 C 528.233 152.872 511.308 120.003 476.765 130.434 L 476.765 130.434 Z " fill-rule="evenodd" fill="rgb(255,255,255)" vector-effect="non-scaling-stroke" stroke-width="1.578" stroke="rgb(0,0,0)" stroke-linejoin="miter" stroke-linecap="butt" stroke-miterlimit="4"/><radialGradient id="_rgradient_36" fx="7.152669517034305%" fy="-38.71978164283085%" cx="7.152669517034305%" cy="-38.71978164283085%" r="52.25326190949018%" gradientTransform="matrix(0 1 -1 0 0 0)"><stop offset="0%" stop-opacity="1" style="stop-color:rgb(165,165,165)"/><stop offset="100%" stop-opacity="1" style="stop-color:rgb(0,0,0)"/></radialGradient><path d=" M 476.765 130.434 C 439.863 144.387 509.43 212.802 447.758 260.444 C 430.404 273.85 492.143 262.13 510.44 206.74 C 528.233 152.872 511.308 120.003 476.765 130.434 L 476.765 130.434 Z " fill-rule="evenodd" fill="url(#_rgradient_36)" vector-effect="non-scaling-stroke" stroke-width="1.578" stroke="rgb(0,0,0)" stroke-linejoin="miter" stroke-linecap="butt" stroke-miterlimit="4"/></g><g id="Group"><path d=" M 366.909 108.188 C 370.983 104.821 376.643 104.629 380.579 108.188" fill="none" vector-effect="non-scaling-stroke" stroke-width="1.604" stroke="rgb(103,71,59)" stroke-linejoin="round" stroke-linecap="round" stroke-miterlimit="4"/><g id="Group"><path d=" M 426.852 120.959 C 426.852 135.593 415.984 147.457 402.577 147.457 C 389.171 147.457 378.303 135.593 378.303 120.959 C 378.303 106.324 389.171 94.46 402.577 94.46 C 415.984 94.46 426.852 106.324 426.852 120.959 Z " fill="none" vector-effect="non-scaling-stroke" stroke-width="1.539" stroke="rgb(103,71,59)" stroke-linejoin="round" stroke-linecap="round" stroke-miterlimit="4"/><g opacity="0.5768"><radialGradient id="_rgradient_37" fx="1824.1%" fy="2181.8%" cx="1824.1%" cy="2181.8%" r="830.85%"><stop offset="0%" stop-opacity="0.2078" style="stop-color:rgb(114,159,207)"/><stop offset="100%" stop-opacity="0.6762" style="stop-color:rgb(114,159,207)"/></radialGradient><path d=" M 424.33 120.927 C 424.33 134.074 414.567 144.731 402.523 144.731 C 390.48 144.731 380.716 134.074 380.716 120.927 C 380.716 107.78 390.48 97.123 402.523 97.123 C 414.567 97.123 424.33 107.78 424.33 120.927 Z " fill-rule="evenodd" fill="url(#_rgradient_37)" vector-effect="non-scaling-stroke" stroke-width="1.068" stroke="rgb(48,99,163)" stroke-opacity="0.4945" stroke-linejoin="miter" stroke-linecap="round" stroke-miterlimit="10"/></g><g opacity="0.2"><radialGradient id="_rgradient_38" fx="37.3775274672685%" fy="21.68225986996628%" cx="37.3775274672685%" cy="21.68225986996628%" r="298.23172380637607%"><stop offset="0%" stop-opacity="1" style="stop-color:rgb(255,255,255)"/><stop offset="100%" stop-opacity="0.2476" style="stop-color:rgb(255,255,255)"/></radialGradient><path d=" M 402.112 100.142 C 392.339 100.142 384.426 108.781 384.426 119.448 C 384.426 122.529 385.215 125.363 386.391 127.949 C 388.742 128.895 391.238 129.538 393.888 129.538 C 405.469 129.538 414.718 119.579 415.432 107.133 C 412.183 102.943 407.531 100.141 402.112 100.141 L 402.112 100.142 Z " fill-rule="evenodd" fill="url(#_rgradient_38)"/></g></g><path d=" M 369.641 120.962 C 369.641 135.597 358.773 147.461 345.366 147.461 C 331.96 147.461 321.091 135.597 321.091 120.962 C 321.091 106.328 331.96 94.464 345.366 94.464 C 358.773 94.464 369.641 106.328 369.641 120.962 Z " fill="none" vector-effect="non-scaling-stroke" stroke-width="1.539" stroke="rgb(103,71,59)" stroke-linejoin="round" stroke-linecap="round" stroke-miterlimit="4"/><g opacity="0.5768"><radialGradient id="_rgradient_39" fx="1824.1%" fy="2181.8%" cx="1824.1%" cy="2181.8%" r="830.85%"><stop offset="0%" stop-opacity="0.2078" style="stop-color:rgb(114,159,207)"/><stop offset="100%" stop-opacity="0.6762" style="stop-color:rgb(114,159,207)"/></radialGradient><path d=" M 367.223 120.93 C 367.223 134.077 357.46 144.735 345.417 144.735 C 333.373 144.735 323.61 134.077 323.61 120.93 C 323.61 107.784 333.373 97.126 345.417 97.126 C 357.46 97.126 367.223 107.784 367.223 120.93 Z " fill-rule="evenodd" fill="url(#_rgradient_39)" vector-effect="non-scaling-stroke" stroke-width="1.365" stroke="rgb(48,99,163)" stroke-opacity="0.4945" stroke-linejoin="miter" stroke-linecap="round" stroke-miterlimit="10"/></g><g opacity="0.2"><radialGradient id="_rgradient_40" fx="37.362414802351566%" fy="21.740258791186307%" cx="37.362414802351566%" cy="21.740258791186307%" r="298.23172380637607%"><stop offset="0%" stop-opacity="1" style="stop-color:rgb(255,255,255)"/><stop offset="100%" stop-opacity="0.2476" style="stop-color:rgb(255,255,255)"/></radialGradient><path d=" M 345.005 100.129 C 335.233 100.129 327.32 108.767 327.32 119.434 C 327.32 122.515 328.109 125.35 329.285 127.936 C 331.635 128.881 334.132 129.525 336.782 129.525 C 348.362 129.525 357.611 119.565 358.325 107.119 C 355.077 102.929 350.424 100.128 345.006 100.128 L 345.005 100.129 Z " fill-rule="evenodd" fill="url(#_rgradient_40)"/></g></g></g></g></svg>